<?xml version="1.0" standalone="no"?>
<!DOCTYPE svg PUBLIC "-//W3C//DTD SVG 1.1//EN" "http://www.w3.org/Graphics/SVG/1.1/DTD/svg11.dtd" >
<svg xmlns="http://www.w3.org/2000/svg" xmlns:xlink="http://www.w3.org/1999/xlink" version="1.1">
<metadata>
Created by FontForge 20170731 at Sat Jun 17 15:46:45 2023
 By Aleksey,,,
Copyright (c) 2016 by Ana Parracho. All rights reserved.
</metadata>
<defs>
<font id="StrangewaysSample" horiz-adv-x="841" >
  <font-face 
    font-family="Strangeways Sample"
    font-weight="400"
    font-stretch="normal"
    units-per-em="2048"
    panose-1="2 0 0 0 0 0 0 0 0 0"
    ascent="1536"
    descent="-512"
    x-height="645"
    cap-height="1024"
    bbox="-90.8205 -741 1821.9 1544.77"
    underline-thickness="102"
    underline-position="-307"
    unicode-range="U+0020-007A"
  />
<missing-glyph horiz-adv-x="514" 
 />
    <glyph glyph-name=".notdef" horiz-adv-x="514" 
 />
    <glyph glyph-name=".null" horiz-adv-x="0" 
 />
    <glyph glyph-name="nonmarkingreturn" horiz-adv-x="682" 
 />
    <glyph glyph-name="space" unicode=" " horiz-adv-x="514" 
 />
    <glyph glyph-name="exclam" unicode="!" horiz-adv-x="378" 
d="M264 158q33 -33 46 -78.5t1 -79.5q-10 -29 -49 -43.5t-76 -3.5q-52 14 -78.5 57.5t-5.5 91.5q16 36 43 58q64 52 119 -2zM201 397q-15 0 -27.5 14.5t-13.5 37.5q-20 381 -41 915q0 28 20 68q4 10 16 18t23 10q25 4 43 -14q33 -37 37 -62q80 -518 0 -909q-16 -78 -57 -78z
" />
    <glyph glyph-name="quotedbl" unicode="&#x22;" horiz-adv-x="645" 
d="M575 975q-13 -4 -31.5 0.5t-31.5 13.5q-34 27 -43 60q-45 214 -72 385q-1 10 13 28t28 23t33.5 1.5t32.5 -13.5q45 -39 53 -80q35 -198 55 -344q6 -19 -6 -43.5t-31 -30.5zM252 1022q-47 -12 -71.5 -3t-39.5 44q-84 187 -20 379q13 38 53 35q25 -3 51 -37q17 -25 13 -51
q-14 -150 53 -297q8 -15 8.5 -27t-3 -19t-12.5 -12t-15.5 -7.5t-16.5 -4.5z" />
    <glyph glyph-name="ampersand" unicode="&#x26;" horiz-adv-x="1187" 
d="M561 608q119 -296 225 -516q61 19 123 62q75 50 108 133t19 176q-4 35 3.5 57t35.5 33q33 10 60.5 -9.5t35.5 -49.5q12 -41 15 -80q6 -170 -111 -297q-26 -30 -88 -76q-75 -53 -147 -84q38 -112 -33 -137q-30 -11 -59 9.5t-50 59.5q-163 -48 -266 -41q-112 5 -195.5 71
t-103.5 179q-40 192 84 357q34 46 162 194q-27 70 -42.5 120.5t-29 115t-11 124.5t20.5 115q28 84 79.5 133.5t133.5 69.5q61 14 115.5 -7.5t87.5 -74.5q50 -79 53 -158q6 -146 -122 -342q-22 -34 -103 -137zM446 502q-61 -61 -115.5 -147.5t-58.5 -159.5
q-5 -72 41.5 -131.5t118.5 -63.5q90 -5 217 39q-70 137 -203 463zM494 760q68 84 106 148t49 124q9 45 -13 85.5t-58 49.5q-38 9 -73 -9t-54 -58q-19 -43 -15 -107q9 -95 58 -233z" />
    <glyph glyph-name="quotesingle" unicode="'" horiz-adv-x="290" 
d="M223 1008q-61 -14 -104 51q-43 71 -53 181.5t8 191.5q1 12 20.5 24t34.5 12q48 0 66 -53q55 -193 63 -338q4 -32 -2 -48t-33 -21z" />
    <glyph glyph-name="parenleft" unicode="(" horiz-adv-x="649" 
d="M604 -410q-33 -33 -79.5 -31.5t-84.5 31.5q-100 74 -159 181q-93 166 -141 370.5t-48 421.5q0 417 146 729q62 132 188 234q28 21 57.5 18.5t48.5 -24.5q17 -21 16.5 -47.5t-16.5 -47.5q-129 -161 -192 -356q-84 -259 -84 -532q0 -249 72 -506q25 -99 75 -183
q29 -48 61.5 -83.5t90.5 -79.5q5 -4 22 -16t22.5 -17.5t13 -16t5 -21.5t-13.5 -24z" />
    <glyph glyph-name="parenright" unicode=")" horiz-adv-x="653" 
d="M61 1481q0 57 89 61q47 3 90 -29q100 -75 159 -180q193 -342 193 -778q0 -197 -39 -389.5t-111 -345.5q-68 -145 -188 -242q-28 -22 -60 -19.5t-47 25.5q-14 24 -13.5 51t13.5 43q130 163 193 357q84 259 84 532q0 249 -72 506q-24 94 -76 182q-31 50 -62.5 86t-90.5 80
q-4 3 -24 13t-29 20t-9 27z" />
    <glyph glyph-name="comma" unicode="," horiz-adv-x="434" 
d="M70 -379q3 14 17 73.5t18.5 79.5t14.5 71t14 80.5t7.5 72t3.5 80.5q0 49 39 88q22 21 56.5 19.5t56.5 -23.5q35 -35 42 -90.5t-13 -106.5q-58 -167 -154 -397q-14 -34 -35.5 -57t-42.5 -23q-28 0 -31 52t7 81z" />
    <glyph glyph-name="hyphen" unicode="-" horiz-adv-x="729" 
d="M668 557q0 -22 -31 -37t-72 -20q-245 -46 -444 -4q-33 7 -46.5 23t-13.5 44q0 31 11 41t41 17q282 39 510 -25q2 -1 9.5 -3t9 -2.5t7 -2.5t7 -3.5t5 -4.5t4.5 -6t2 -7.5t1 -9.5z" />
    <glyph glyph-name="period" unicode="." horiz-adv-x="378" 
d="M264 158q33 -33 46 -78.5t1 -79.5q-10 -29 -49 -43.5t-76 -3.5q-52 14 -78.5 57.5t-5.5 91.5q10 29 43 58q64 52 119 -2z" />
    <glyph glyph-name="slash" unicode="/" horiz-adv-x="931" 
d="M43 -25q-31 60 23 140q588 900 827 1259q9 13 31 39q59 63 106 21q41 -36 10 -115q-11 -24 -57 -100q-41 -66 -113.5 -176t-175.5 -265t-116 -174q-311 -468 -400 -604q-40 -60 -78 -66q-35 -4 -57 41z" />
    <glyph glyph-name="zero" unicode="0" horiz-adv-x="833" 
d="M801 588q-6 -123 -58 -243.5t-147 -221.5q-109 -114 -240.5 -100.5t-216.5 147.5q-58 88 -71 201t9.5 215.5t69.5 195.5q58 116 169 180t210 42q129 -28 206.5 -141t68.5 -275zM487 858q-76 14 -151.5 -55t-102.5 -148q-71 -209 3 -360q50 -101 135.5 -113.5t163.5 70.5
q82 86 116 270q24 121 -16 217.5t-148 118.5z" />
    <glyph glyph-name="one" unicode="1" horiz-adv-x="604" 
d="M317 780q-48 -43 -113 -103.5t-75 -70.5q-22 -19 -41 -18.5t-35 12.5q-45 36 -4 88q117 151 270 324q22 25 50 30t51.5 -11.5t32.5 -49.5q29 -112 32 -195q6 -173 0 -346q-7 -204 23 -342q6 -32 -7 -58t-46 -36q-39 -11 -71.5 9t-39.5 61q-12 66 -12 170q0 62 2 186
t2 186q0 53 -19 164z" />
    <glyph glyph-name="two" unicode="2" horiz-adv-x="989" 
d="M317 809q-21 -4 -43.5 -11t-50 -16t-43.5 -14q-60 -20 -99.5 -13.5t-45.5 38.5q-5 23 0 41.5t20.5 32.5t27 21t32.5 17q154 80 311 51q153 -29 147 -194q-5 -110 -90 -252q-62 -103 -100 -162q-23 -37 -8 -64t53 -30h92q191 0 342 -10q49 -4 72.5 -14.5t23.5 -41.5
q0 -34 -84 -47q-275 -45 -454 -57q-41 -2 -94 4q-111 19 -144 86.5t25 161.5q175 277 209 334q42 71 13.5 113.5t-112.5 25.5z" />
    <glyph glyph-name="three" unicode="3" horiz-adv-x="831" 
d="M154 965q0 35 36 57q166 103 369 51q129 -34 111 -166q-2 -18 -23 -104q-8 -32 -39 -103q55 -27 88 -57q170 -157 64 -352q-64 -119 -196.5 -208t-256.5 -89q-97 0 -159 63t-54 152q0 67 62 86q24 8 43.5 -0.5t25.5 -32.5q9 -37 14 -53.5t17 -37.5t27 -30q13 -8 26 -13
t27.5 -5h25t26.5 6.5t24 10t25.5 14.5t23.5 14.5t24.5 16.5t22.5 16q75 52 117 121q25 46 21 88.5t-37.5 74t-82.5 35.5q-29 2 -75 -4q-29 -8 -61.5 -3t-47.5 34q-5 9 -7.5 17.5t-1.5 17t1 14.5t5 14.5t7 12.5t10.5 13.5t10.5 12t12.5 12.5t11.5 11q60 63 109 133
q15 20 20 45.5t-4 44.5q-10 21 -33.5 30.5t-50.5 6.5q-25 -1 -69.5 -4t-81.5 -5t-70 -3q-23 0 -40 10.5t-17 34.5z" />
    <glyph glyph-name="four" unicode="4" horiz-adv-x="929" 
d="M629 332q-20 -169 -35 -277q-4 -34 -22.5 -48.5t-55.5 -14.5q-32 2 -49 16.5t-23 46.5q-5 28 -8 64.5t-5 93t-3 72.5q-136 -17 -205 -15q-93 4 -137 62q-38 48 -16 137q20 77 139 528q1 4 3.5 11.5t3 10.5t3 8.5t4.5 7t5 4.5t7 3.5t10 0.5t13 -1q48 -7 51 -53
q9 -116 -20 -244q-18 -78 -60 -210q-21 -64 13 -72q117 -25 209 16q26 185 34 230q5 25 15 34.5t30 8.5q39 -3 56 -25.5t24 -60.5q23 -136 25 -148q115 0 168 -6q26 -2 44 -15t19 -38q2 -31 -8.5 -47t-38.5 -25q-29 -10 -190 -55z" />
    <glyph glyph-name="five" unicode="5" horiz-adv-x="866" 
d="M254 864q-31 -5 -31 -76q0 -34 -4 -120q17 3 52 11.5t51 10.5q150 22 234.5 -27.5t113.5 -185.5q59 -281 -74 -420q-114 -122 -338 -110q-58 3 -113 37q-19 13 -33 35.5t-3 48.5q22 41 81 16q23 -10 76 -14q156 0 238 82q52 53 57 144.5t-37 170.5q-25 46 -85.5 64.5
t-112.5 -1.5q-41 -17 -80 -53q-7 -6 -23.5 -24.5t-26 -26t-25.5 -16t-33 -6.5t-36 14q-31 19 -37 59t1 76q16 252 28 371q4 28 13.5 48.5t25 33t32 20.5t41.5 12t45 5t50 1q258 6 520 0q23 0 34 -11.5t11 -26.5q0 -42 -32 -48q-220 -46 -414 -71q-104 -14 -166 -23z" />
    <glyph glyph-name="six" unicode="6" horiz-adv-x="806" 
d="M217 483q193 25 297 19q105 -6 163 -53t66 -127q11 -126 -43 -211.5t-161 -110.5q-134 -31 -253.5 27t-176.5 182q-60 131 -41 289q20 173 116 350q62 113 157 177.5t216 76.5q100 10 162 -39q15 -7 19 -23.5t-5 -29.5q-21 -37 -86 -19q-21 6 -47 6q-74 0 -145 -47
q-67 -44 -121 -121q-92 -133 -117 -346zM231 346q9 -74 34.5 -115.5t74.5 -74.5q52 -33 111 -34.5t96 30.5q69 59 45 131q-24 67 -90 73q-112 11 -271 -10z" />
    <glyph glyph-name="seven" unicode="7" horiz-adv-x="792" 
d="M543 1032q33 -51 37 -129q3 -54 8 -266q39 -2 133 -14q37 -6 39 -27q2 -20 -23 -41q-49 -42 -82 -63q-20 -14 -46.5 -34.5t-35.5 -27.5v-65q2 -41 2 -246q0 -60 -10 -101q-12 -42 -51 -45q-45 -3 -65 41q-21 55 -27 115q-8 128 -8 303q-175 20 -312 39q-41 7 -41 49
q0 22 14.5 35.5t30.5 17.5q71 14 80 15q41 6 128.5 14.5t109.5 11.5q9 135 -4 252q-90 0 -127 2q-78 6 -166 39q-35 12 -35 58q0 18 12 33t29 16q204 27 334 41q54 12 76 -23z" />
    <glyph glyph-name="eight" unicode="8" horiz-adv-x="798" 
d="M293 383q-18 15 -43 36.5t-39 33.5q-81 69 -106 101q-44 56 -44 116q0 113 146 194q7 4 31 16.5t36 19.5t28.5 20t25.5 26q20 28 27 37t25 26.5t36.5 22.5t42.5 4q162 -11 237 -112q65 -81 29 -162q-68 -158 -174 -340q63 -83 63 -191q1 -103 -65 -169t-164 -66
q-44 0 -102 22q-39 15 -63.5 48t-24.5 71q0 26 12 63t24 62t34.5 68t27.5 53zM426 508q69 78 115 145q30 49 43 88q8 21 4.5 48.5t-17.5 41.5q-29 29 -88 25q-36 -2 -92 -33q-74 -40 -108.5 -72.5t-34.5 -66.5q0 -36 43.5 -78t134.5 -98zM489 229q0 24 -25 55t-44 31
q-32 -14 -57.5 -61.5t-12.5 -73.5q5 -11 24.5 -20.5t37.5 -9.5q32 0 55 23t22 56z" />
    <glyph glyph-name="nine" unicode="9" horiz-adv-x="800" 
d="M561 610q-142 -48 -221 -59q-168 -28 -240 62t-10 247q34 87 126 138t204 51q95 0 203 -48q58 -26 80.5 -66t27.5 -101q8 -109 8 -250q0 -171 -22 -281q-36 -174 -136.5 -249t-244.5 -54q-50 8 -79 39.5t-17 75.5q17 61 116 55q95 -8 146.5 23.5t68.5 111.5q13 67 13 129
q0 91 -23 176zM422 922q-78 0 -127.5 -28t-73.5 -95q-12 -39 3.5 -71.5t51.5 -41.5q48 -12 108.5 2t106.5 53t46 90q-1 24 -16.5 44.5t-39.5 31.5q-34 15 -59 15z" />
    <glyph glyph-name="colon" unicode=":" horiz-adv-x="409" 
d="M264 158q33 -33 46 -78.5t1 -79.5q-10 -29 -49 -43.5t-76 -3.5q-52 14 -78.5 57.5t-5.5 91.5q10 29 43 58q64 52 119 -2zM264 772q33 -33 46 -78.5t1 -79.5q-10 -29 -49 -43.5t-76 -3.5q-52 14 -78.5 58t-5.5 92q9 27 43 57q64 52 119 -2z" />
    <glyph glyph-name="question" unicode="?" horiz-adv-x="653" 
d="M309 158q33 -33 46 -78.5t1 -79.5q-10 -29 -49 -43.5t-76 -3.5q-52 14 -78.5 57.5t-5.5 91.5q10 29 43 58q64 52 119 -2zM326 477q21 -40 16.5 -60t-33.5 -34q-46 -23 -102 26q-5 4 -31 29q-40 37 -48.5 88t13.5 95q26 58 101 170q14 20 54.5 76t58.5 82.5t41 72t34 86.5
q13 36 3.5 86t-44.5 74q-72 50 -166 -35q-7 -6 -23.5 -21t-26.5 -22t-24.5 -15t-29 -7t-29.5 10q-47 30 -8 116q38 71 118.5 113.5t164.5 36.5q87 -6 150 -69t73 -156q21 -192 -94 -353q-35 -50 -177 -239q-21 -27 -24 -50t4 -41t29 -59z" />
    <glyph glyph-name="at" unicode="@" horiz-adv-x="1853" 
d="M1143 313q-113 -63 -217 -110q-73 -30 -135 -41q-63 -11 -109.5 27t-50.5 104q-7 87 33 158q126 234 417 278q99 15 156 -39t66 -166q1 -9 0.5 -34.5t1.5 -34.5q8 -45 47 -65t80 1q58 31 103.5 65.5t83.5 78.5t59 99t22 118q1 123 -56 225t-165 170q-160 101 -338 86
q-484 -45 -776 -397q-150 -180 -150 -418q0 -225 168 -430q135 -163 342 -238t416 -24q115 28 226 78.5t249 127.5q9 5 27.5 15.5t27.5 15.5q31 15 49 21.5t32.5 4t21.5 -17.5q24 -47 -17 -88q-75 -75 -145 -116q-300 -174 -551 -209q-178 -24 -350 28q-241 76 -400 241
t-227 404q-28 103 -19.5 211.5t46.5 202.5q135 332 396.5 511t622.5 206q227 17 398 -89t254 -315q36 -90 39.5 -184.5t-24 -180.5t-79 -159.5t-129 -128t-170.5 -80.5q-55 -16 -135 11q-48 17 -141 77zM813 330q108 14 173 51t114 115q18 26 7 51.5t-38 19.5
q-222 -52 -276 -205q-8 -23 -4 -29t24 -3z" />
    <glyph glyph-name="A" unicode="A" horiz-adv-x="882" 
d="M106 270q-9 9 -39.5 32.5t-48 43t-16.5 37.5q1 20 13.5 32.5t23.5 14.5q84 13 135 25q8 21 26.5 67t26.5 66q44 109 189 442q12 29 27 39t46 10q59 -5 74 -80q15 -68 39 -192.5t33 -169.5q2 -14 8 -52t10 -61q136 -11 175 -35q21 -13 22 -30q2 -33 -164 -84q3 -30 12 -75
t11 -62q3 -21 10 -59t11.5 -66.5t6.5 -53.5q3 -50 -37 -59q-40 -10 -57 23q-30 56 -74 192q-23 71 -49 129q-24 -4 -65.5 -13.5t-100.5 -23t-90 -20.5q-45 -153 -86 -271q-12 -34 -32.5 -48.5t-55.5 -14.5q-18 0 -29.5 15.5t-7.5 37.5q1 3 21.5 104t31.5 160zM440 756
q-51 -105 -108 -273q53 0 155 13q-7 99 -47 260z" />
    <glyph glyph-name="B" unicode="B" horiz-adv-x="806" 
d="M166 49q-25 197 -39 455q-9 194 -2 522q-86 8 -135 14q-31 4 -51 13q-27 8 -29.5 41t14.5 51q19 26 60 33q82 14 163 14q158 0 310 -42.5t223 -119.5q45 -49 47 -112.5t-37 -116.5q-70 -99 -213 -185q41 -18 82 -42.5t82.5 -57.5t69.5 -75t32 -85q6 -61 -28 -125.5
t-84 -113.5q-74 -72 -166 -111.5t-191 -36.5q-96 3 -108 80zM281 494q-9 -167 20 -318q7 -36 29.5 -43t60.5 6q52 13 98.5 48t75.5 83q16 25 16 50.5t-11 45.5t-31 38.5t-40.5 31.5t-43.5 23q-80 38 -174 35zM301 1001q-22 -132 0 -266q127 0 221 84q73 66 15 115
q-31 26 -76 41.5t-76.5 19t-83.5 6.5z" />
    <glyph glyph-name="C" unicode="C" horiz-adv-x="909" 
d="M926 268q16 7 45 24.5t45 25.5t36 6t33 -21q10 -20 2.5 -39.5t-26.5 -34.5q-107 -86 -201 -127q-193 -84 -407 -69q-108 7 -194.5 54.5t-134 123t-60.5 173t26 202.5q83 243 277 334q159 75 313 8q43 -19 67.5 -57.5t4.5 -75.5q-22 -47 -84 -15q-130 68 -275 -30
q-124 -87 -157 -269q-17 -95 23 -169t128 -109q120 -46 260 -25q125 19 279 90z" />
    <glyph glyph-name="D" unicode="D" horiz-adv-x="919" 
d="M229 39q-33 112 -44 211t-15 237q-6 174 18 498q-61 17 -98 39q-33 20 -27.5 65.5t41.5 53.5q87 19 175 16q198 -6 348 -92q118 -69 188 -176.5t74 -245.5q0 -175 -103 -338q-64 -98 -154.5 -166.5t-223.5 -140.5q-31 -18 -67.5 -22.5t-68.5 10.5t-43 51zM367 164
q83 28 159 86.5t131 130.5q129 176 48 373q-27 67 -83 114t-123.5 70t-148.5 29q-45 -389 17 -803z" />
    <glyph glyph-name="E" unicode="E" horiz-adv-x="913" 
d="M156 549q0 22 16.5 42t32.5 30.5t47 27.5q3 66 0 176v52q-14 2 -39 2q-5 0 -25 -0.5t-30 0t-28 2t-27.5 7.5t-20.5 14.5t-15.5 24t-3.5 36.5q1 15 5.5 26t15 18.5t18.5 12.5t25 8t24.5 4.5t27.5 3.5t24 2q64 6 262.5 26.5t306.5 29.5q74 8 84 -45q4 -21 -7 -32t-36 -18
q-37 -11 -116 -33t-140.5 -40t-114.5 -35q-21 -104 -14 -232q81 -5 201 3q94 4 151 12q27 5 35.5 -9t-10.5 -40q-44 -46 -131 -76q-18 -6 -60.5 -20t-64.5 -21.5t-54.5 -22t-58.5 -30.5q0 -105 2 -142q4 -67 30.5 -131.5t76.5 -75.5q90 -21 209 111q6 6 16.5 17.5t16.5 17.5
l15 15t15.5 13t14.5 7t15.5 2t14.5 -6q31 -19 12 -54q-68 -108 -147 -182q-61 -61 -174 -86q-51 -12 -100.5 10t-75.5 68q-44 77 -72 182q-13 49 -43 223q-5 3 -16 11l-16.5 12t-15.5 11t-15.5 12t-13.5 11.5t-12 12t-8.5 12t-6.5 12t-2 11.5z" />
    <glyph glyph-name="F" unicode="F" horiz-adv-x="794" 
d="M248 406q-62 17 -135 43q-13 4 -26 22t-15 33q0 14 13 32.5t26 22.5q74 25 129 41q5 91 -17 215q-13 2 -39 3.5t-40 3.5t-32 7t-29 16.5t-17 28.5q-10 31 8.5 56.5t52.5 40.5q228 117 555 67q50 -7 84 -41q30 -30 20 -65q-3 -9 -12 -19.5t-16 -11.5q-41 -11 -121 -4
q-154 13 -272 -47q3 -30 12 -112t12 -122q95 6 252 27q9 1 35 5t40 5.5t37.5 4t38 1.5t29.5 -3t23 -8t10 -15q2 -15 -10 -28.5t-38.5 -25t-46.5 -18t-58 -17.5t-48 -14q-122 -39 -235 -73q-9 -83 -6 -168q4 -164 4 -248q0 -17 -14 -28t-35 -13q-22 -1 -40 6t-24 19
q-25 55 -31 116q-6 44 -13 134.5t-11 130.5z" />
    <glyph glyph-name="G" unicode="G" horiz-adv-x="1071" 
d="M1202 516q-99 -99 -266 -119q-29 -93 -49 -147q-95 -264 -381 -264q-212 0 -330 118q-113 113 -113 310q-3 319 207 532q115 119 230 137q85 13 118 -69q12 -29 1.5 -49.5t-41.5 -26.5q-123 -22 -207 -109q-70 -73 -118 -191.5t-48 -217.5q2 -123 87 -209.5t208 -89.5
q53 0 102 14q62 18 133 101q24 28 24 62t-22 60t-59 31q-72 9 -98 14q-5 1 -14 2.5t-14 2.5t-14.5 3t-14 3.5t-12.5 5t-11 7t-9 9t-6 12t-3 15t1 18.5q3 24 27.5 44.5t60.5 23.5q117 9 611 55q26 3 35.5 -13.5t4 -38.5t-19.5 -36z" />
    <glyph glyph-name="H" unicode="H" horiz-adv-x="972" 
d="M721 1075q18 -58 27 -121q20 -164 59 -379q101 0 156 -8q35 -6 38 -26q4 -25 -22 -43q-30 -20 -80.5 -46.5t-77.5 -37.5q-2 -68 -4 -205t-4 -205q0 -13 -7.5 -21t-17.5 -10q-34 -6 -43 35q-26 117 -69 383q-145 -8 -389 -45q4 -193 10 -297q2 -50 -12 -88t-39 -39
q-34 -3 -57.5 26t-28.5 70q-5 35 -11.5 95t-7.5 71q-2 18 -6 72t-6 72q-7 8 -24.5 25t-25.5 26.5t-14 27t-2 37.5q2 11 8.5 21.5t12 16.5t16 15.5t13.5 12.5q6 55 6 182q0 73 -4 217q0 96 55 103q28 4 52 -19t32 -55q6 -26 10 -61q2 -43 6 -138t6 -149v-68q203 12 359 33
q-2 54 -8.5 176t-8.5 195q-4 35 -1 80t18 79q14 35 43 35q9 0 14.5 -2t13.5 -12.5t15 -30.5z" />
    <glyph glyph-name="I" unicode="I" horiz-adv-x="403" 
d="M152 231q-19 417 -29 697q0 96 63 96q46 0 67 -39.5t23 -89.5q2 -45 6.5 -148.5t6.5 -156.5q15 -365 20 -463q2 -48 -10.5 -86t-32.5 -41q-36 -4 -62 24t-36 72q-12 55 -16 135z" />
    <glyph glyph-name="J" unicode="J" 
d="M385 803q-41 11 -117 29.5t-126 32t-95 30.5q-29 11 -40 32.5t-1 47.5q19 51 78 33q81 -19 172 -21t158.5 5t172 19.5t171.5 16.5q82 6 149 -4q58 -7 58 -68q0 -23 -18.5 -40.5t-39.5 -20.5q-22 -4 -125 -8q-64 -3 -108.5 -15t-102.5 -45v-389q1 -66 4.5 -198.5
t4.5 -198.5q0 -80 -11 -147q-17 -89 -66 -154t-115 -94.5t-146.5 -21.5t-155.5 57q-23 13 -44 40.5t-30 55.5q-22 64 17 86q13 8 25 9.5t22.5 -4.5t18 -12t17 -16t13.5 -14q68 -62 143 -62q64 2 113.5 49t58.5 126q11 96 0 245q-7 80 -26 291t-29 328z" />
    <glyph glyph-name="K" unicode="K" horiz-adv-x="1030" 
d="M371 442q79 -43 151.5 -78.5t168 -78t124.5 -56.5q23 -11 75.5 -34.5t78.5 -36.5q78 -35 57 -103q-12 -29 -42.5 -40.5t-64 -7.5t-63.5 18q-69 28 -206.5 88t-205.5 88q-22 9 -48 18t-62 21.5t-62 21.5q-15 -157 -24 -219q-10 -61 -72 -61q-33 0 -53 26.5t-23 65.5
q-28 447 41 864q8 45 64 135q24 34 53 27q35 -8 35 -47q3 -72 -2 -127q-14 -168 -6 -320q48 19 125 64q157 101 223 141q128 80 162 12q24 -55 -33 -106q-76 -67 -178 -131q-60 -39 -213 -144z" />
    <glyph glyph-name="L" unicode="L" 
d="M178 1141q29 0 47 -10t26 -29t10 -37t1 -43q-4 -115 -13 -347t-13 -347q-6 -120 21 -145.5t134 -0.5q240 61 385 94q28 6 58 -5t36 -33q5 -21 -4.5 -40.5t-27.5 -25.5q-36 -12 -137 -44.5t-152 -49t-132 -40.5t-149 -42q-98 -26 -153 22.5t-52 145.5q19 503 56 923
q1 23 19 38.5t40 15.5z" />
    <glyph glyph-name="M" unicode="M" horiz-adv-x="1427" 
d="M289 283q-4 -126 -15 -197q-7 -41 -38.5 -66.5t-65.5 -19.5q-66 14 -70 90q-8 168 -8 248q0 266 2 397q0 57 15.5 113t52.5 98.5t88 42.5q16 0 30 -6.5t29 -24t20 -24.5t21 -31q39 -57 107 -165.5t80 -127.5q40 -64 151 -235q79 57 103 104q66 126 147 318
q9 20 17.5 54.5t16.5 62.5t20.5 56.5t33 46t49.5 19.5q9 1 16.5 -0.5t15 -5t13 -7t12 -11t10 -11.5t10 -14t8.5 -14t8 -15t8 -14q40 -70 69 -158q105 -323 150 -729q4 -34 -9 -55.5t-38 -26.5q-27 -3 -47.5 13.5t-30.5 42.5q-37 91 -70 237q-66 278 -70 291q-22 93 -55 164
q-110 -208 -137 -248q-95 -144 -168 -211q-55 -49 -112.5 -40.5t-102.5 67.5q-22 28 -127 184q-21 33 -117 141q-13 -81 -22 -333z" />
    <glyph glyph-name="N" unicode="N" horiz-adv-x="1148" 
d="M317 504q-40 -137 -63 -250q-20 -105 -45 -215q-9 -37 -43 -37q-22 -2 -40.5 13.5t-21.5 41.5q-17 145 5 346q2 16 9.5 68.5t8.5 75t1.5 62t-8.5 69t-26 57.5q-35 55 -29.5 84t56.5 76q3 3 63 57q28 24 54 21t36 -33q19 -59 25 -82q33 -113 160 -215q150 -121 348 -254
q46 -31 82 -45q15 -10 30 -2.5t15 33.5q6 246 0 477q-4 122 -2 182q0 53 49 53q43 0 65.5 -39.5t24.5 -84.5q12 -338 16 -521q0 -64 -12 -123q-32 -138 -91 -162.5t-189 44.5q-148 77 -312 190q-36 24 -166 113z" />
    <glyph glyph-name="O" unicode="O" horiz-adv-x="995" 
d="M965 545q0 -264 -207 -443q-122 -105 -287 -102q-141 5 -252 95t-141 239q-47 224 39 438q53 126 151.5 185t241.5 67q254 14 389 -217q66 -114 66 -262zM207 504q0 -48 6 -98q13 -103 70.5 -162.5t167.5 -87.5q85 -22 162 13t128 118q123 201 31 428
q-44 104 -140.5 143.5t-203.5 -0.5q-214 -74 -221 -354z" />
    <glyph glyph-name="P" unicode="P" horiz-adv-x="690" 
d="M287 356v-309q0 -60 -47 -63q-42 -3 -56 53q-13 42 -20 96q-57 606 -70 791q-6 71 22.5 103.5t102.5 43.5q144 19 270 2q78 -12 133 -77.5t64 -149.5q27 -244 -178 -385q-91 -62 -221 -105zM268 535q107 0 189 86q60 60 80 149q12 52 -15 95.5t-80 52.5q-47 6 -98 0
q-42 -5 -67.5 -28.5t-26.5 -64.5q-3 -137 18 -290z" />
    <glyph glyph-name="Q" unicode="Q" horiz-adv-x="989" 
d="M713 117q51 -99 131 -252q17 -47 -13 -68q-39 -17 -73 17q-99 95 -207 219q-50 -4 -76 -4q-77 0 -145.5 26.5t-114.5 67.5q-70 63 -112 192.5t-42 255.5q0 197 107 316q60 67 148.5 101t191.5 34q127 0 242 -82q153 -107 174 -311q24 -219 -115 -396q-51 -67 -96 -116z
M647 297q178 146 121 365q-20 76 -82.5 131.5t-138 75.5t-155 2t-130.5 -78q-67 -78 -67 -232q0 -98 41 -194t102 -146q26 -21 65 -26.5t74 10.5q-50 151 -59 196q-14 63 33 84q45 20 84 -22q18 -21 35 -45.5t41.5 -64t35.5 -56.5z" />
    <glyph glyph-name="R" unicode="R" horiz-adv-x="972" 
d="M258 305q-13 -164 -33 -293q-5 -20 -9.5 -31t-17 -21.5t-30.5 -10.5q-34 0 -52 35t-18 71q-1 68 -3 256t-2 256t1 256q1 156 99.5 234t263.5 59q150 -15 232 -129t44 -256q-26 -96 -102 -162q-69 -61 -201 -137q23 -12 63.5 -32.5t70 -36t54.5 -31.5q183 -111 336 -246
q14 -13 17 -40t-10 -46q-37 -41 -80 -14q-29 19 -144 98q-236 161 -479 221zM242 551q131 25 191.5 53.5t119.5 93.5q54 62 46.5 122.5t-75.5 107.5q-94 64 -211 20q-82 -28 -82 -106q0 -21 11 -291z" />
    <glyph glyph-name="S" unicode="S" horiz-adv-x="686" 
d="M434 322q-41 45 -69 67q-67 52 -203 174q-77 69 -95 154t25.5 161t138.5 119q147 69 289 27q29 -9 48.5 -18t35.5 -29t10 -45q-3 -16 -11.5 -27t-17.5 -15.5t-24.5 -6t-26 -0.5t-29.5 3t-28 3q-72 6 -145 -17q-72 -20 -88.5 -78t35.5 -112q51 -53 145 -133
q122 -103 176 -172q69 -88 51 -172t-116 -137q-172 -91 -357 -68q-74 10 -74 70q0 46 68 59q47 9 133.5 27t104.5 22q44 8 58 32.5t3.5 53.5t-37.5 58z" />
    <glyph glyph-name="T" unicode="T" horiz-adv-x="1024" 
d="M356 815q-200 8 -295 21q-34 4 -49 28.5t-10 59.5q3 25 21.5 41t44.5 16q55 0 110 2.5t122 10t102.5 12t120.5 16t108 14.5q205 26 385 37h10q20 0 29 -1t17 -6.5t11 -18.5q9 -42 -36 -54q-308 -84 -512 -151q0 -11 -2 -58t-1 -75q2 -49 11.5 -273t13.5 -344
q2 -36 -15.5 -75.5t-49.5 -39.5q-57 0 -68 66q-1 4 -6 88q-16 237 -43 543q-7 78 -19 141z" />
    <glyph glyph-name="U" unicode="U" horiz-adv-x="987" 
d="M504 201q67 0 126 61t93 147.5t41 174.5q2 84 1 114t-11 115.5t-13 116.5q-4 38 5.5 60.5t44.5 33.5q21 6 42.5 -8t32.5 -39q52 -116 58 -250q8 -189 -64.5 -360t-206.5 -269q-70 -52 -148 -54t-151 46q-65 42 -108 107q-172 268 -183 544q-4 117 7 185q7 44 47 47
q26 1 44 -14t21 -37q5 -30 17 -121q20 -153 73 -316q33 -108 96.5 -196t135.5 -88z" />
    <glyph glyph-name="V" unicode="V" horiz-adv-x="817" 
d="M410 170q44 117 82 264q25 87 74 262t73 262q13 56 39 91q14 16 36.5 25.5t43.5 2.5q35 -8 50 -44.5t5 -69.5q-109 -361 -215 -738q-44 -147 -145 -225q-37 -29 -83 -21t-71 48q-15 25 -29 65q-150 453 -225 709q-21 74 -9.5 123.5t46.5 58.5q36 10 62 -10t35.5 -42.5
t25.5 -76.5q3 -8 4 -12q27 -93 78 -263l63 -210q2 -7 22.5 -77t37.5 -122z" />
    <glyph glyph-name="W" unicode="W" horiz-adv-x="1355" 
d="M551 295q-52 -81 -90 -156q-10 -18 -38 -72.5t-44 -82.5q-28 -47 -81 -45t-81 53q-16 32 -49 137q-86 250 -125 377q-19 57 -4 139q3 23 23.5 34.5t43.5 6.5t33 -24q35 -54 74 -152q16 -40 50.5 -135t53.5 -142q96 127 162 224q29 40 69.5 46t78.5 -24q16 -12 34 -28.5
t29.5 -28t32 -32.5t29.5 -30q13 -13 43 -44.5t52.5 -53t45.5 -39.5q57 -45 116 -25.5t78 89.5q15 53 27.5 113.5t26.5 136t22 114.5q25 117 31 140q6 26 25 40t45 11q25 -2 43.5 -21t15.5 -43q-33 -208 -78 -430q-11 -57 -18.5 -87.5t-28 -72.5t-51.5 -71
q-71 -68 -148.5 -79t-162.5 40q-52 31 -144 104q-23 18 -69.5 55.5t-71.5 57.5z" />
    <glyph glyph-name="X" unicode="X" 
d="M375 651q37 52 126 180t132 187q31 39 67 63q50 31 86 0q28 -28 13 -80q-12 -25 -56 -90l-264 -399q150 -301 307 -557q25 -43 25 -57q0 -18 -18 -31q-46 -37 -86 10q-117 130 -203 250q-20 28 -66 102.5t-69 106.5q-23 -32 -101 -144t-127 -176q-9 -12 -32.5 -17
t-30.5 1q-35 35 -41 78q-2 20 24 69q13 21 39.5 63t38.5 64q84 136 123 201q-7 12 -43 75t-55 95q-15 28 -53 93.5t-56 101.5q-30 65 -22.5 114t49.5 58q18 2 30 3t23.5 -6t18.5 -12.5t15 -17.5t12.5 -21t11.5 -22t12 -21q51 -83 170 -264z" />
    <glyph glyph-name="Y" unicode="Y" horiz-adv-x="866" 
d="M508 381q0 -89 18 -168q8 -36 26.5 -102.5t25.5 -96.5q10 -44 0 -70t-35 -32q-17 -5 -37.5 4t-36.5 33q-42 61 -74 172q-14 45 -25 96t-25 124.5t-21 109.5q-106 62 -170.5 171.5t-108.5 262.5q-7 26 -10 42.5t-3 38.5t11 36t33 20q20 4 34 -4t20 -18t15 -31
q27 -62 66 -135q57 -101 94 -148q88 -114 157.5 -108t133.5 135q70 139 135 317q11 33 34 46.5t52 0.5q36 -16 45 -52t-6 -73q-31 -96 -59 -166t-69.5 -148.5t-96.5 -143t-123 -113.5z" />
    <glyph glyph-name="Z" unicode="Z" horiz-adv-x="919" 
d="M451 899q-193 -44 -289 -63q-49 -8 -62 20q-13 26 6.5 53t47.5 43q177 95 407 88q97 -6 103 -61q1 -12 -2 -26.5t-7 -23t-12.5 -25t-11.5 -21.5q-100 -185 -156 -310q103 -3 238 -6q43 0 43 -28q0 -26 -60 -47q-149 -56 -256 -105q-17 -47 -12 -96t33 -84
q20 -24 58 -36.5t75 -12.5q121 0 244 24q67 13 77 -32q16 -50 -38 -78q-129 -72 -275 -72q-100 0 -180 31q-48 19 -86 61.5t-55 97.5q-18 61 -29 172q-35 8 -95 22t-71 17q-21 4 -38 17.5t-17 34.5q0 30 14 43t43 20q103 23 197 39q61 157 166 344z" />
    <glyph glyph-name="underscore" unicode="_" horiz-adv-x="1761" 
d="M883 -59h696q33 0 49 -2q30 -3 51 -21t21 -41q0 -46 -76 -88q-17 -10 -51 -10q-453 0 -1016 10q-214 4 -324 14q-81 7 -137 37q-16 8 -26 26.5t-7 37.5q1 21 17.5 34t34.5 15q55 5 123 2q369 -14 645 -14z" />
    <glyph glyph-name="a" unicode="a" horiz-adv-x="1040" 
d="M1030 70q-19 -27 -47 -35.5t-59 4.5q-112 51 -187 129q-55 55 -100 129q-118 -89 -195 -129q-150 -77 -286 -96q-51 -7 -88 33t-37 96q0 27 6 51q31 112 124.5 219.5t217 178t239.5 81.5q58 7 101 -6q53 -17 86 -53q41 -44 33 -92q-31 -167 32 -273q11 -18 22.5 -35
t30 -39t26.5 -31.5t33.5 -38t29.5 -32.5q3 -4 10.5 -12t10 -12t5 -10t0.5 -12.5t-8 -14.5zM233 244q161 48 250.5 119t120.5 169q8 26 0 31t-35 0q-105 -22 -199.5 -96t-154.5 -197q-10 -20 -4 -26t22 0z" />
    <glyph glyph-name="b" unicode="b" horiz-adv-x="802" 
d="M322 614q107 52 194 52q72 0 130.5 -31.5t88.5 -81.5t35.5 -113.5t-27.5 -128.5q-95 -192 -274 -252q-114 -40 -219 -59q-80 -15 -121 21t-35 120q2 23 14.5 184t16.5 246q5 88 9.5 247t6.5 210q3 64 15 125q8 31 37 31q32 0 46.5 -12t26.5 -39q37 -93 41 -136
q11 -120 15 -383zM342 199q107 18 162.5 56t89.5 107q19 37 -3.5 83t-62.5 49q-130 13 -202 -72q-25 -27 -29.5 -80.5t2.5 -99.5q2 -21 14 -33.5t29 -9.5z" />
    <glyph glyph-name="c" unicode="c" horiz-adv-x="770" 
d="M735 176q11 -16 -10 -50t-41 -46q-118 -84 -248 -84q-93 0 -179.5 29t-143.5 86q-82 82 -82 204q0 99 55 187q126 209 401 229q54 3 83 -25t36 -94q6 -41 -13.5 -51t-74.5 -2q-123 22 -233 -70q-80 -67 -74.5 -154t94.5 -138q79 -43 197 -43q67 0 141 18q4 1 13.5 3
t15.5 3t15.5 3t15.5 2h13t12 -2t7 -5z" />
    <glyph glyph-name="d" unicode="d" horiz-adv-x="1036" 
d="M692 678q27 188 37 246q6 33 37 118q24 61 62 93.5t77 27.5q40 -5 63.5 -50t16.5 -112q-14 -142 -43 -294q-63 -322 41 -611q2 -5 6 -15.5t6 -17.5t5 -17t3.5 -17t0 -15t-4.5 -14t-10 -10q-28 -23 -50.5 -19t-41.5 29q-25 35 -52.5 76t-62.5 95t-55 85
q-103 -74 -190 -123q-133 -74 -275 -108q-141 -35 -207 94q-55 107 21 209q143 198 420 293q32 10 196 57zM217 205q6 -20 31.5 -24.5t62.5 6t73.5 25t74.5 34.5q3 2 31 16.5t36 19.5t34 20t36.5 24t30 26t29.5 31.5t20.5 34t15.5 39.5q5 28 -7 41t-40 10
q-141 -17 -293 -113q-65 -41 -108.5 -91t-26.5 -99z" />
    <glyph glyph-name="e" unicode="e" horiz-adv-x="802" 
d="M213 346q-7 -78 20 -139.5t82 -97.5q92 -61 209 -64q71 -2 181 4q39 2 57 -11t6 -31.5t-49 -31.5q-98 -35 -219 -38q-213 -7 -340 105.5t-129 305.5q0 119 50.5 220.5t144 163t210.5 61.5q88 0 159.5 -46t78.5 -120q6 -94 -62 -162q-22 -22 -55 -39.5t-61.5 -28
t-75.5 -20t-70.5 -13t-75 -10.5t-61.5 -8zM510 614q-14 29 -53.5 34t-81.5 -8.5t-76 -35.5q-48 -29 -41 -63q3 -16 15.5 -24.5t32.5 -9t40 1.5t43.5 8t38 10.5t27.5 9.5q29 10 47 32.5t8 44.5z" />
    <glyph glyph-name="f" unicode="f" horiz-adv-x="864" 
d="M317 285q-110 3 -200 20q-61 11 -121 68q-27 23 -27 67q0 28 33 42t67.5 12.5t53.5 -0.5q133 -7 186 -2q9 111 31 227q31 155 147 274q94 97 191 97q79 0 129 -50q30 -28 50 -63.5t-1 -56.5q-4 -5 -9 -8.5t-10.5 -5t-9.5 -2.5t-10.5 0.5t-10 2t-10.5 3.5t-10 4t-10.5 5
t-9.5 5q-56 23 -102.5 7.5t-81.5 -59.5q-48 -66 -64.5 -119.5t-21.5 -144.5q-4 -51 0 -102q175 7 335 24q44 3 80 -2q37 -6 43 -25.5t-20 -45.5q-33 -27 -62 -38.5t-118 -35.5q-33 -8 -254 -72q22 -186 51 -311q5 -21 21.5 -89t23.5 -104q4 -19 -1.5 -37t-23.5 -22
q-49 -8 -82 25q-25 25 -45 90q-54 157 -127 422z" />
    <glyph glyph-name="g" unicode="g" horiz-adv-x="876" 
d="M571 258q-147 -70 -233 -92q-82 -23 -159 0.5t-107 77.5q-42 73 -40.5 154.5t48.5 152.5q50 76 123 120t180 83q45 15 101.5 20.5t112.5 -1.5t94 -39.5t38 -88.5q-5 -209 62 -516q63 -280 -48 -481q-64 -115 -185.5 -177.5t-248.5 -41.5q-57 9 -100 63q-24 30 -25.5 56
t21.5 79q12 28 34.5 43.5t39.5 -4.5q2 -3 10.5 -16.5t12.5 -19.5t13 -17t17 -16.5t19.5 -10t23.5 -4.5q45 0 93 18.5t83 45.5q106 79 115 209q12 219 -95 403zM422 602q-100 -27 -145 -64t-78 -114q-19 -44 4.5 -83t70.5 -40q129 -5 236 102q26 26 31.5 77t-6.5 81
q-20 66 -113 41z" />
    <glyph glyph-name="h" unicode="h" horiz-adv-x="1021" 
d="M834 0q-19 41 -37 168q-22 150 -52 242q-23 70 -77.5 86.5t-120.5 -23.5q-136 -83 -201 -244q-27 -75 -51 -110q-11 -18 -38.5 -26t-49.5 -3q-20 3 -39.5 22.5t-22.5 41.5q-2 16 -6 47.5t-6 46.5q-44 322 -70 672q-6 72 13.5 110.5t58.5 38.5q22 0 37.5 -13.5t24 -39
t12 -44t6.5 -46.5q8 -66 19 -172t16 -148q4 -38 26 -143q73 55 115 82q113 73 199 98q106 31 181.5 -6t115.5 -139q50 -126 65 -265q10 -78 4 -208q-3 -36 -19.5 -58t-37.5 -22q-41 0 -65 55z" />
    <glyph glyph-name="i" unicode="i" horiz-adv-x="374" 
d="M92 612q0 54 17 95q6 15 23 27t32 14q15 3 35.5 -6t29.5 -23q29 -49 29 -90q0 -194 -8 -570q0 -23 -21 -41t-43 -18t-37 14t-18 31q-17 86 -20 145q-2 32 -5.5 98t-5.5 101q-8 148 -8 223zM182 1174q3 45 40.5 69.5t82.5 7.5q17 -6 28 -21t11 -30q0 -41 -31.5 -71
t-76.5 -27q-27 1 -41.5 24t-12.5 48z" />
    <glyph glyph-name="j" unicode="j" horiz-adv-x="475" 
d="M283 1104q-17 6 -25 26.5t-6 43.5q2 44 39.5 68t83.5 9q13 -5 26 -21.5t13 -29.5q0 -47 -40.5 -79.5t-90.5 -16.5zM-47 -516q11 12 21.5 17t25.5 1t26 -9t34 -18t38 -20q22 -11 39.5 -12t28.5 8t18.5 21t12 33t6.5 37t4 40q15 168 0 420q-12 192 -39 533q-5 66 14 170
q10 40 56 40q13 0 29 -12.5t26 -27.5q18 -24 22 -70q19 -233 26.5 -329t17 -270.5t12.5 -328.5q4 -261 -101 -366q-47 -51 -113 -55.5t-141 38.5q-49 27 -68.5 79t5.5 81z" />
    <glyph glyph-name="k" unicode="k" horiz-adv-x="1087" 
d="M453 408q63 -42 140.5 -73t132.5 -44.5t142 -30.5q64 -12 144 -33q45 -9 45 -49q0 -28 -21 -41q-64 -40 -143 -33q-176 16 -395 82q-73 21 -222 80q-2 -45 -2.5 -115t-1.5 -92q-2 -20 -11 -38t-23 -21q-22 -4 -45.5 6t-40.5 27q-38 38 -41 90q-47 497 32 852q7 41 31 65
q11 13 30 21.5t32 5.5q15 -3 31.5 -17.5t19.5 -29.5q8 -54 -2 -121q-31 -201 -23 -379q67 23 117 55q197 130 297 189q49 31 149 82q53 26 82 -17q30 -46 -24 -92q-124 -100 -277 -215q-125 -91 -153 -114z" />
    <glyph glyph-name="l" unicode="l" horiz-adv-x="591" 
d="M139 1202q54 11 80 -57q40 -109 43 -215q4 -109 4 -494q0 -144 2 -172q6 -84 40 -112t120 -19q26 2 143 27q38 6 47 -23q5 -13 -0.5 -28t-23.5 -23q-58 -31 -96.5 -49t-94 -34.5t-102.5 -16.5q-153 0 -190 176q-19 98 -19 219q2 276 17 713q0 29 0.5 40.5t3 30t9 26.5
t17.5 11z" />
    <glyph glyph-name="m" unicode="m" horiz-adv-x="1564" 
d="M1219 477q-81 -62 -143 -131.5t-134 -165.5q-18 -24 -30.5 -38t-35.5 -29.5t-45 -14.5q-41 2 -75 78q-14 30 -42 96t-53 117t-53 96q-25 41 -49 41q-33 0 -102 -157q-18 -41 -60 -144t-67 -157q-50 -116 -111 -97q-21 6 -31.5 24.5t-12.5 33.5t-1.5 43.5t0.5 33.5
q-13 280 -96 484q-7 20 -10.5 39t-2.5 39t12 34.5t32 20.5q71 16 120 -96q15 -31 45 -95l45 -96q82 130 134 189q69 80 141 77.5t129 -88.5q56 -83 151 -270q5 6 30.5 34t33.5 37t32 34.5t36 37t34.5 34t38.5 36t38 31t42.5 32t42.5 27.5q64 40 117 29q33 -7 59 -37
q76 -81 76 -227q4 -173 57 -275q15 -27 18.5 -36t0 -21t-20.5 -23q-31 -18 -56.5 -9t-41.5 36q-53 89 -100 221q-24 67 -51 160q-5 15 -16 18.5t-25 -6.5z" />
    <glyph glyph-name="n" unicode="n" horiz-adv-x="884" 
d="M715 49q-3 8 -19.5 52.5t-21.5 57.5t-20.5 52t-24.5 56.5t-26 50t-32 53t-35 45t-42 45.5q-47 47 -107 4q-49 -35 -78 -86.5t-53 -126.5q-6 -19 -24 -77t-31 -105q-12 -52 -58 -52q-26 2 -44.5 18.5t-18.5 41.5q-3 70 -9 197.5t-8 166.5q-3 74 5 136q7 68 57 79
q62 13 111 -86l30 20t44.5 28t39.5 20q163 72 271 -53q194 -234 231 -486q12 -81 -57 -96q-32 -7 -50 3t-30 42z" />
    <glyph glyph-name="o" unicode="o" horiz-adv-x="839" 
d="M578 678q94 -32 149 -112t52 -176.5t-66 -174.5q-151 -185 -404 -213q-143 -14 -219 125q-100 179 -29 405q40 128 199 160q167 37 318 -14zM424 571q-66 0 -130 -34t-79 -82q-16 -50 -22 -89.5t4 -85.5t41 -83q15 -18 49 -27.5t59 -3.5q98 22 180 74q57 35 85.5 85.5
t17.5 96.5q-14 59 -79.5 104t-125.5 45z" />
    <glyph glyph-name="p" unicode="p" horiz-adv-x="647" 
d="M254 700q104 -33 158 -57q96 -43 141.5 -119t27.5 -164t-102 -159q-67 -57 -262 -162v-381q-1 -66 -25 -98t-63 -21q-20 5 -33 16.5t-18 30.5t-6.5 33.5t-1.5 38.5q-1 75 -4 280t-2.5 279.5t4.5 280.5q8 176 16 264q10 97 31 239q3 24 21 42t44 18q23 0 40 -20t20 -50
q6 -50 10 -149q4 -94 4 -142zM326 276q54 19 90 82q7 15 1 46t-18 45q-28 31 -63.5 36.5t-69.5 -14.5q-17 -10 -29.5 -33.5t-15.5 -46.5q-11 -75 14 -107t91 -8z" />
    <glyph glyph-name="q" unicode="q" horiz-adv-x="950" 
d="M819 -125q4 -1 20.5 -3.5t25 -4.5t23.5 -5.5t24 -7.5t19 -9t14.5 -12t4.5 -15q0 -19 -6.5 -36.5t-14 -28.5t-24.5 -24.5t-25 -19t-29.5 -17.5t-25.5 -14q0 -35 6 -109t7 -87q8 -85 14 -127q3 -23 -7.5 -38t-37.5 -15q-20 -1 -37 11.5t-25 31.5q-14 31 -36 116
q-1 6 -41 193q-158 0 -230 4q-55 3 -55 49q0 77 117 109q32 9 85 23.5t64 17.5q-20 253 -47 483q-109 -47 -166 -66q-139 -46 -268 -18q-87 20 -120 81.5t3 143.5q36 77 105 133q169 142 413 142q113 0 179 -55.5t65 -165.5q-7 -386 6 -660zM362 406q74 10 144 46t96 91
q8 18 -2.5 34.5t-30.5 16.5q-187 13 -301 -107q-45 -54 -11.5 -72.5t105.5 -8.5z" />
    <glyph glyph-name="r" unicode="r" horiz-adv-x="774" 
d="M340 741q145 76 285 54q52 -8 96 -41q30 -22 45.5 -59.5t-2.5 -59.5q-9 -9 -30 -9.5t-42.5 4.5t-49.5 10t-44 5q-159 3 -252.5 -82t-107.5 -244q-11 -124 -11 -251q0 -72 -57 -72q-34 0 -49 16t-17 51q-2 33 -7 97.5t-7 97.5q-29 352 -27 428q2 30 17 52t41 28
q63 13 108 -78q40 18 111 53z" />
    <glyph glyph-name="s" unicode="s" horiz-adv-x="659" 
d="M145 113q45 -13 88.5 -19.5t79.5 -4t58 16.5t22 39q0 17 -10 34.5t-32 37.5t-38 32.5t-46.5 34t-39.5 27.5q-133 95 -133 228q0 51 25 106q29 69 116.5 122.5t172.5 55.5q78 0 145 -67q65 -65 35 -107q-9 -12 -25 -13t-30 5t-31.5 14.5t-24.5 10.5q-87 28 -162 -41
q-37 -34 -40 -74.5t32 -71.5q83 -71 152 -123q137 -103 137 -206q0 -68 -61 -123q-148 -131 -398 -80q-39 8 -57 31.5t-19 72.5q0 41 21 57.5t63 4.5z" />
    <glyph glyph-name="t" unicode="t" horiz-adv-x="888" 
d="M731 295q39 -35 12 -113q-30 -87 -104.5 -134.5t-173.5 -47.5q-87 0 -152 68t-82 147q-16 76 -20 238q-126 18 -207 36q-17 4 -26 18.5t-9 31.5q0 22 10.5 33.5t34.5 23.5q23 8 215 70q5 107 25 245q5 35 29.5 53t58.5 9q23 -5 42 -22.5t22 -41.5q14 -112 20 -207
q240 20 414 23q68 0 78 -29q7 -22 -12 -38.5t-40 -22.5q-60 -19 -163.5 -53t-153.5 -50q-77 -22 -152 -57q-11 -37 -8 -110q2 -89 15 -122q20 -50 73 -69q113 -39 180 94q11 24 32 32.5t42 -5.5z" />
    <glyph glyph-name="u" unicode="u" horiz-adv-x="897" 
d="M737 768q29 -2 43.5 -24.5t13.5 -48.5t-1 -49v-7q-1 -19 -4.5 -59.5t-4.5 -61.5q-1 -62 -1.5 -116t13 -111t42.5 -101q45 -61 14 -92q-56 -51 -125 -10q-32 18 -78 59q-113 -78 -205 -116q-81 -34 -147 -31q-81 3 -133 55q-103 105 -103 394q0 118 23 227q5 17 17 30
t28 13q34 0 45 -33q33 -97 35 -147q3 -114 12 -224q7 -78 37 -108q42 -46 102 -43q108 4 171 72.5t75 185.5q5 41 17 115.5t16 103.5q5 50 31 89t67 38z" />
    <glyph glyph-name="v" unicode="v" horiz-adv-x="710" 
d="M334 211q54 160 158 352q34 60 83 107q19 19 42.5 22t44.5 -14q16 -16 16.5 -44t-12.5 -46q-142 -238 -199 -506q-15 -76 -72 -91.5t-114 38.5q-208 201 -248 528q-7 56 39 72q24 7 44 -1.5t29 -27.5q16 -34 41 -99t35 -89q39 -94 113 -201z" />
    <glyph glyph-name="w" unicode="w" horiz-adv-x="1159" 
d="M436 274q-137 -173 -203 -245q-32 -35 -77 -26t-64 54q-90 207 -45 512q3 24 21 43t45 19q26 0 42 -16t19 -40q12 -82 23 -206q3 -30 13 -50t23 -20q14 -1 34 15t36 36q89 105 96 113q34 38 75 37t73 -41q157 -183 244 -264q5 -4 17 -15.5t15.5 -14.5t12.5 -10.5
t12.5 -8.5t11 -4.5t12.5 -1.5t12 4t14 8t15 14q45 45 37 139q-7 80 -28 268q-3 29 10.5 49t40.5 23q38 7 63.5 -8.5t30.5 -46.5q23 -165 29 -338q3 -69 -33 -150q-38 -91 -114.5 -119t-168.5 17q-65 33 -162 111q-73 60 -182 163z" />
    <glyph glyph-name="x" unicode="x" horiz-adv-x="854" 
d="M403 535q18 20 44.5 48.5t46 49.5t36.5 39q74 81 140 141q27 24 55 24.5t53 -28.5q12 -17 11 -43t-15 -45q-11 -14 -41 -54t-49 -63q-16 -20 -77 -95.5t-89 -113.5q21 -29 44 -55.5t38.5 -42.5t43.5 -39t38 -31t45 -33.5t43 -31.5q33 -18 18 -56q-15 -23 -43 -24.5
t-45 6.5q-17 4 -33 9.5t-34.5 13t-30.5 12.5t-34 16l-30 15t-34 18.5t-31 17.5t-34.5 20t-32.5 19q-87 -96 -236 -241q-22 -22 -44 -22.5t-44 14.5q-14 8 -18 23.5t-0.5 28.5t10.5 25q40 69 102 154q99 139 113 156q-34 42 -101 145q-30 46 -45 73t-28 70.5t-9 83.5
q4 45 39 56q38 17 66 -15q34 -41 99 -125.5t93 -119.5z" />
    <glyph glyph-name="y" unicode="y" horiz-adv-x="790" 
d="M334 -592q52 -6 84 -5.5t57 6.5t40.5 24t26.5 43t23 69q23 85 23 234q0 126 -19.5 257t-54.5 224q-95 -73 -170 -117q-31 -18 -65 -22.5t-65 10t-46 49.5q-40 95 -58 141t-43.5 129t-33.5 150q-5 41 12 102q7 20 14.5 29t26.5 12q41 7 53 -28q18 -45 37 -121
q3 -14 11 -48t13.5 -56.5t14 -54.5t17 -53.5t19 -41.5t22 -29.5t24.5 -7.5q29 4 54.5 20.5t46.5 44.5t34 51t31 58q30 60 69 158q21 52 78 49q26 -2 44.5 -19.5t19.5 -43.5q1 -14 4 -42t4 -42q4 -39 15.5 -154t16.5 -171.5t10 -147.5t5 -166q0 -138 -10 -238
q-10 -103 -39 -192q-35 -99 -108 -154t-169 -55q-60 0 -102 12q-69 21 -55 82q15 64 88 55z" />
    <glyph glyph-name="z" unicode="z" horiz-adv-x="948" 
d="M946 610q3 -44 -84 -88q-68 -33 -165 -68t-162 -53q-17 -45 -19 -82q-7 -133 53.5 -164.5t180.5 38.5q25 14 38.5 21t36 8t33.5 -17q12 -24 4 -46t-31 -36q-3 -2 -19.5 -14t-21 -15t-19.5 -13.5t-21 -14.5t-20 -12.5t-21.5 -13t-20.5 -11.5t-22.5 -11.5t-21.5 -9
t-23 -8.5q-94 -30 -165.5 15.5t-88.5 144.5q-14 76 -7 198q-25 1 -75 2t-74 2q-79 3 -152 13q-25 3 -42 19.5t-17 39.5t15 42.5t38 25.5q72 16 121 18q32 2 232 25q9 45 59 205q-156 25 -225 41q-57 15 -54 63q1 26 18.5 41.5t45.5 17.5q204 14 354 19q63 0 80 -30.5
t-6 -90.5q-51 -150 -80 -227q90 0 272 51q73 22 76 -25z" />
    </font>
</defs>
</svg>
